<svg width="192" height="192" viewBox="0 0 192 192" fill="none" xmlns="http://www.w3.org/2000/svg">
  <path
    d="M61.0739 145.182L77.1648 49.1818H87.5284L85.7102 60.2727H86.983C87.9527 59.0606 89.286 57.5151 90.983 55.6364C92.7102 53.7273 95.0284 52.0303 97.9375 50.5455C100.877 49.0303 104.619 48.2727 109.165 48.2727C115.044 48.2727 119.968 49.7424 123.938 52.6818C127.907 55.6212 130.71 59.7879 132.347 65.1818C133.983 70.5758 134.195 76.9394 132.983 84.2727C131.771 91.6667 129.453 98.0758 126.028 103.5C122.604 108.894 118.422 113.076 113.483 116.045C108.544 118.985 103.165 120.455 97.3466 120.455C92.8617 120.455 89.392 119.712 86.9375 118.227C84.483 116.712 82.6951 115 81.5739 113.091C80.4527 111.152 79.589 109.545 78.983 108.273H78.0739L71.892 145.182H61.0739ZM81.892 84.0909C81.0436 89.3636 81.0436 94.0152 81.892 98.0455C82.7708 102.045 84.5133 105.182 87.1193 107.455C89.7557 109.697 93.2254 110.818 97.5284 110.818C102.013 110.818 105.938 109.636 109.301 107.273C112.695 104.879 115.483 101.667 117.665 97.6364C119.877 93.5758 121.407 89.0606 122.256 84.0909C123.044 79.1818 123.013 74.7576 122.165 70.8182C121.316 66.8485 119.589 63.7121 116.983 61.4091C114.377 59.0758 110.801 57.9091 106.256 57.9091C101.892 57.9091 98.0284 59.0151 94.6648 61.2273C91.3314 63.4091 88.5739 66.4697 86.392 70.4091C84.2405 74.3182 82.7405 78.8788 81.892 84.0909Z"
    fill="black"
  />
</svg>