<svg width="160px" height="160px" viewBox="0 0 160 160" fill="none" xmlns="http://www.w3.org/2000/svg">
  <path
    d="M48.5739 132.182L64.6648 36.1818H75.0284L73.2102 47.2727H74.483C75.4527 46.0606 76.786 44.5151 78.483 42.6364C80.2102 40.7273 82.5284 39.0303 85.4375 37.5455C88.3769 36.0303 92.1193 35.2727 96.6648 35.2727C102.544 35.2727 107.468 36.7424 111.438 39.6818C115.407 42.6212 118.21 46.7879 119.847 52.1818C121.483 57.5758 121.695 63.9394 120.483 71.2727C119.271 78.6667 116.953 85.0758 113.528 90.5C110.104 95.8939 105.922 100.076 100.983 103.045C96.0436 105.985 90.6648 107.455 84.8466 107.455C80.3617 107.455 76.892 106.712 74.4375 105.227C71.983 103.712 70.1951 102 69.0739 100.091C67.9527 98.1515 67.089 96.5455 66.483 95.2727H65.5739L59.392 132.182H48.5739ZM69.392 71.0909C68.5436 76.3636 68.5436 81.0152 69.392 85.0455C70.2708 89.0455 72.0133 92.1818 74.6193 94.4545C77.2557 96.697 80.7254 97.8182 85.0284 97.8182C89.5133 97.8182 93.4375 96.6364 96.8011 94.2727C100.195 91.8788 102.983 88.6667 105.165 84.6364C107.377 80.5758 108.907 76.0606 109.756 71.0909C110.544 66.1818 110.513 61.7576 109.665 57.8182C108.816 53.8485 107.089 50.7121 104.483 48.4091C101.877 46.0758 98.3011 44.9091 93.7557 44.9091C89.392 44.9091 85.5284 46.0151 82.1648 48.2273C78.8314 50.4091 76.0739 53.4697 73.892 57.4091C71.7405 61.3182 70.2405 65.8788 69.392 71.0909Z"
    fill="black"
  />
</svg>